# xmcd
#
# Track frame offsets:
#	150
#	15012
#	29051
#	44828
#	56695
#	71623
#	84033
#	97859
#	111698
#	120632
#	133490
#	143673
#
# Disc length: 2074 seconds
# Revision: 0
# Processed by: cddbd v1.5.2PL0 Copyright (c) Steve Scherf et al.
# Submitted via: dBpowerAMP V12.0
#
DISCID=a708180c
DTITLE=Monte Good - A Texas Honky Tonk
DYEAR=2012
DGENRE=Country
TTITLE0=A Texas Honky Tonk
TTITLE1=That Girl Who Waits On Tables
TTITLE2=I Flew Over Our House Last Night
TTITLE3=The Corner Of My Mind
TTITLE4=I Cheated Me Right Out Of You
TTITLE5=There's A Little Bit Of Everuthing In Texas
TTITLE6=I Can't Tell If I've Gone Crazy
TTITLE7=Red Wine And Blue Memories
TTITLE8=The Walls Of This Old Honky Tonk
TTITLE9=The Right Combination (with Jenee Fleenor)
TTITLE10=You Ought To Hear Me Cry
TTITLE11=Way Down Texas Way
EXTD=
EXTT0=
EXTT1=
EXTT2=
EXTT3=
EXTT4=
EXTT5=
EXTT6=
EXTT7=
EXTT8=
EXTT9=
EXTT10=
EXTT11=
PLAYORDER=
